# xmcd
#
# Track frame offsets:
#	150
#	18157
#	29750
#	49030
#	70663
#	87796
#	102617
#	119913
#	136531
#	155183
#	168813
#	190241
#	206978
#
# Disc length: 2995 seconds
#
# Revision: 47
# Processed by: cddbd v1.5.2PL0 Copyright (c) Steve Scherf et al.
# Submitted via: dBpowerAMP V4.0
#
DISCID=b70bb10d
DTITLE=Michael Bublé - It's Time
DYEAR=2005
DGENRE=Jazz
TTITLE0=Feeling Good
TTITLE1=A Foggy Day (In London Town)
TTITLE2=You Don't Know Me
TTITLE3=Quando, Quando, Quando with Nelly Furtado
TTITLE4=Home
TTITLE5=Can't Buy Me Love
TTITLE6=The More I See You
TTITLE7=Save The Last Dance For Me
TTITLE8=Try A Little Tenderness
TTITLE9=How Sweet It Is
TTITLE10=Song For You ft. Chris Botti
TTITLE11=I've Got You Under My Skin
TTITLE12=You And I
EXTD=
EXTT0=
EXTT1=
EXTT2=
EXTT3=
EXTT4=
EXTT5=
EXTT6=
EXTT7=
EXTT8=
EXTT9=
EXTT10=
EXTT11=
EXTT12=
PLAYORDER=
